<svg width="262" height="262" viewBox="0 0 262 262" role="img" xmlns="http://www.w3.org/2000/svg">
<path d="M97.788 68.6388C100.083 68.7113 101.878 69.8928 103.112 71.2859C104.34 72.6721 105.185 74.4311 105.779 76.2056C106.977 79.7793 107.486 84.4108 107.341 89.2813C107.077 98.1311 104.603 108.936 98.7269 117.031C105.564 129.877 116.44 141.886 130.494 151.43C137.588 156.247 145.479 160.428 154.046 163.766C159.679 165.961 165.341 167.688 170.968 168.97C171.388 165.805 171.609 162.508 171.609 159.091C171.609 155.928 171.113 152.592 170.14 148.981C169.858 147.934 170.005 146.817 170.549 145.88C171.093 144.943 171.988 144.263 173.035 143.991C176.474 143.1 180.171 142.564 184.046 142.564C193.448 142.564 200.701 145.484 205.571 150.74C210.388 155.941 212.391 162.909 212.391 170.111C212.391 171.751 212.21 173.361 211.863 174.924C211.537 176.396 210.423 177.564 208.973 177.96L208.247 178.157C208.136 178.188 208.023 178.213 207.909 178.234C196.262 180.354 189.152 180.492 177.389 178.496C170.956 204.138 151.686 221.435 128.223 221.435C99.1493 221.435 76.7393 195.063 76.7393 159.091C76.7393 145.708 82.4427 130.389 89.368 116.605C84.8544 107.493 84.0926 96.5264 85.2661 87.7505C85.8993 83.015 87.1316 78.6263 88.8657 75.2944C89.7307 73.6326 90.8095 72.0616 92.153 70.8588C93.5117 69.6425 95.3448 68.6354 97.5643 68.6354L97.788 68.6388ZM132.259 162.157C131.963 163.721 131.533 165.238 131.058 166.703C130.42 168.672 129.629 170.753 128.9 172.755C128.153 174.806 127.426 176.892 126.809 179.109C124.537 187.277 123.587 197.774 130.727 213.233C148.52 212.067 163.883 198.504 169.428 176.946C163.328 175.569 157.199 173.706 151.112 171.334C144.437 168.732 138.135 165.646 132.259 162.157ZM121.099 71.4263C122.645 70.6041 124.543 70.87 125.804 72.0855C127.304 73.5308 154.291 98.9483 169.636 126.994C170.711 128.96 169.994 131.427 168.033 132.505C166.072 133.584 163.611 132.864 162.535 130.898C152.513 112.581 137.157 95.2837 127.93 85.6765C127.865 91.4235 127.168 95.9116 124.881 100.359C123.856 102.352 121.414 103.135 119.427 102.108C117.439 101.08 116.658 98.6325 117.683 96.6397C119.281 93.5321 119.866 90.2104 119.836 84.3122C119.817 80.6562 119.447 78.2625 119.007 75.7016C118.71 73.9731 119.554 72.2485 121.099 71.4263ZM97.357 77.101C96.9994 77.4761 96.5409 78.0992 96.0458 79.0504C94.8737 81.3025 93.8437 84.7111 93.293 88.8293C92.4818 94.8956 92.7875 101.873 94.6906 108.093C97.5949 102.316 99.0578 95.329 99.2455 89.0389C99.373 84.7655 98.8978 81.1639 98.1027 78.791C97.8399 78.0068 97.5753 77.4613 97.357 77.101ZM115.208 55.2947C115.208 52.8925 113.265 50.9452 110.869 50.9452C108.473 50.9452 106.531 52.8925 106.531 55.2947C106.531 57.6969 108.473 59.6442 110.869 59.6442C113.265 59.6442 115.208 57.6969 115.208 55.2947ZM84.8379 159.091C84.8379 188.863 101.279 209.167 121.695 212.748C115.53 197.436 116.459 186.091 119.008 176.928C119.711 174.401 120.525 172.079 121.293 169.97C122.079 167.811 122.777 165.979 123.355 164.196C124.282 161.335 124.704 159.136 124.528 157.169C111.763 148.23 101.4 137.283 94.1421 125.347C88.661 137.179 84.8379 149.081 84.8379 159.091ZM179.708 159.091C179.708 163.029 179.441 166.846 178.93 170.523C188.934 172.21 194.977 172.186 204.282 170.627C204.288 170.456 204.293 170.283 204.293 170.111C204.293 164.342 202.694 159.566 199.637 156.266C196.632 153.022 191.736 150.683 184.046 150.683C182.299 150.683 180.588 150.818 178.922 151.066C179.431 153.768 179.708 156.438 179.708 159.091ZM123.306 55.2947C123.306 62.1809 117.738 67.7632 110.869 67.7632C104 67.7632 98.432 62.1809 98.432 55.2947C98.432 48.4085 104 42.8262 110.869 42.8262C117.738 42.8262 123.306 48.4085 123.306 55.2947Z" />
<path d="M257.608 127.108C259.757 127.108 261.5 128.851 261.5 131C261.5 203.073 203.073 261.5 131 261.5C100.41 261.5 72.2681 250.97 50.0176 233.34C48.3338 232.005 48.0505 229.558 49.3848 227.874C50.7194 226.19 53.1671 225.906 54.8516 227.24C75.7761 243.819 102.227 253.718 131 253.718C198.775 253.718 253.718 198.775 253.718 131C253.718 128.851 255.459 127.109 257.608 127.108ZM17.9014 101.185C18.4478 99.1063 20.576 97.864 22.6543 98.4102C24.7325 98.9567 25.9741 101.085 25.4277 103.163C23.0922 112.046 21.8477 121.375 21.8477 131C21.8477 191.283 70.7169 240.152 131 240.152C166.463 240.152 197.975 223.245 217.919 197.035C219.22 195.325 221.662 194.993 223.372 196.294C225.082 197.595 225.413 200.037 224.112 201.747C202.76 229.808 168.996 247.935 131 247.935C66.4187 247.935 14.0654 195.581 14.0654 131C14.0654 120.701 15.3975 110.707 17.9014 101.185ZM107.701 2.57422C109.816 2.19314 111.839 3.59923 112.221 5.71387C112.602 7.82842 111.197 9.85296 109.082 10.2344C51.7656 20.5664 8.28223 70.7089 8.28223 131C8.28223 162.609 20.2281 191.419 39.8574 213.176H39.8584C41.2977 214.771 41.1706 217.232 39.5752 218.672C37.9796 220.111 35.5187 219.985 34.0791 218.39C13.2099 195.259 0.5 164.609 0.5 131C0.5 66.8768 46.7445 13.5624 107.701 2.57422ZM131 14.0654C195.581 14.0654 247.935 66.4187 247.935 131C247.935 149.224 243.763 166.485 236.319 181.869C235.383 183.803 233.056 184.613 231.121 183.677C229.187 182.741 228.378 180.414 229.313 178.479C236.257 164.129 240.152 148.025 240.152 131C240.152 70.7169 191.283 21.8477 131 21.8477C88.608 21.8477 51.8532 46.014 33.7725 81.3389C32.7932 83.2513 30.4489 84.0079 28.5361 83.0293C26.6232 82.05 25.8666 79.705 26.8457 77.792C46.2055 39.9687 85.5741 14.0654 131 14.0654ZM131 0.5C196.14 0.5 250.126 48.2233 259.916 110.614C260.249 112.737 258.798 114.728 256.675 115.062C254.552 115.394 252.561 113.943 252.228 111.82C243.023 53.1566 192.248 8.28223 131 8.28223C128.851 8.28223 127.109 6.54057 127.108 4.3916C127.108 2.24249 128.851 0.5 131 0.5Z" stroke-linecap="round"/>
</svg>
